<svg width="1440" height="804" viewBox="0 0 1440 804" fill="none" xmlns="http://www.w3.org/2000/svg">
<path fill-rule="evenodd" clip-rule="evenodd" d="M-1461.6 432.406L-1548.27 442.144L-1545.92 475.051L-1619.97 479.941L-1612.26 587.753L-1506.61 604.848L-1506.61 604.848C-1400.96 621.942 -1189.66 656.131 -980.94 654.383C-772.215 652.635 -566.063 614.949 -360.339 571.274C-341.637 567.303 -322.938 563.283 -304.24 559.263C-117.253 519.064 69.733 478.864 260.262 488.165C370.568 493.549 482.062 515.525 593.556 537.502C693.9 557.28 794.245 577.059 893.724 584.742C1103.73 600.962 1309.89 563.277 1412.96 544.434L1516.04 525.591L1500.83 313.047L1531.96 310.991L1618.91 305.249L1613.76 233.325L1525.66 223.084C1519.65 222.417 1513.25 221.703 1506.51 220.951C1411.55 210.355 1246.93 191.985 1080.75 184.216C902.775 175.897 728.29 179.39 553.459 215.024C471.098 231.81 389.83 255.653 308.595 279.485C217.389 306.243 126.224 332.988 33.6026 349.722C-123.359 378.079 -280.271 377.406 -438.87 376.725C-457.215 376.646 -475.583 376.567 -493.976 376.533C-671.381 376.205 -845.865 379.698 -1022.41 391.358C-1194.11 402.696 -1362.77 421.429 -1454.05 431.567C-1456.63 431.854 -1459.15 432.133 -1461.6 432.406Z" fill="#8B0606" fill-opacity="0.45"/>
<path fill-rule="evenodd" clip-rule="evenodd" d="M-2073.27 403.245L-2159.94 412.983L-2157.59 445.89L-2231.64 450.781L-2223.93 558.593L-2118.28 575.687L-2118.28 575.687C-2012.63 592.782 -1801.33 626.971 -1592.61 625.223C-1383.88 623.474 -1177.73 585.789 -972.007 542.113C-953.305 538.143 -934.606 534.123 -915.907 530.103C-728.921 489.903 -541.935 449.703 -351.406 459.004C-241.1 464.389 -129.606 486.365 -18.112 508.341C82.2325 528.12 182.577 547.898 282.056 555.582C492.067 571.802 698.219 534.116 801.295 515.273L904.372 496.431L889.16 283.886L920.288 281.831L1007.24 276.088L1002.1 204.164L913.996 193.924C907.979 193.256 901.586 192.543 894.842 191.79C799.884 181.194 635.259 162.824 469.084 155.056C291.107 146.736 116.623 150.23 -58.2082 185.863C-140.569 202.65 -221.837 226.492 -303.072 250.324C-394.279 277.082 -485.443 303.827 -578.065 320.561C-735.026 348.919 -891.939 348.245 -1050.54 347.564C-1068.88 347.486 -1087.25 347.407 -1105.64 347.373C-1283.05 347.044 -1457.53 350.538 -1634.08 362.197C-1805.77 373.536 -1974.44 392.268 -2065.72 402.407C-2068.3 402.693 -2070.82 402.973 -2073.27 403.245Z" fill="#8B0606" fill-opacity="0.2"/>
<path fill-rule="evenodd" clip-rule="evenodd" d="M-1564.17 250.029L-1667.25 268.872L-1652.04 481.416L-1683.16 483.472L-1770.12 489.214L-1764.97 561.138L-1676.87 571.379C-1670.85 572.046 -1664.46 572.76 -1657.71 573.512C-1562.75 584.109 -1398.13 602.478 -1231.96 610.246C-1053.98 618.566 -879.495 615.073 -704.664 579.439C-622.303 562.652 -541.034 538.81 -459.799 514.978C-368.593 488.22 -277.429 461.475 -184.807 444.741C-27.8454 416.383 129.067 417.057 287.666 417.738C306.011 417.817 324.379 417.896 342.771 417.93C520.176 418.258 694.661 414.764 871.208 403.105C1042.9 391.767 1211.57 373.034 1302.85 362.896L1310.4 362.057L1397.07 352.319L1394.71 319.412L1468.77 314.522L1461.05 206.71L1355.4 189.615C1249.75 172.521 1038.46 138.332 829.732 140.08C621.007 141.828 414.854 179.514 209.13 223.189C190.428 227.16 171.73 231.18 153.031 235.2C-33.9554 275.399 -220.942 315.599 -411.471 306.298C-521.777 300.914 -633.271 278.938 -744.765 256.961C-845.109 237.183 -945.454 217.404 -1044.93 209.721C-1254.94 193.501 -1461.1 231.186 -1564.17 250.029Z" fill="#7B0000" fill-opacity="0.74"/>
<path fill-rule="evenodd" clip-rule="evenodd" d="M-1677.71 297.888L-1781.28 276.916L-1765.92 491.508L-1980.54 505.681L-2082.13 512.39L-2064.3 761.522L-1963.7 740.972C-1961.39 740.509 -1959.03 740.037 -1956.63 739.555C-1851.05 718.405 -1654.2 678.969 -1452.04 672.417C-1348.66 669.066 -1245.43 674.416 -1142.19 679.767C-1038.96 685.117 -935.729 690.468 -832.347 687.117C-627.994 680.494 -429.067 640.27 -227.231 599.457L-220.083 598.012C-209.18 595.808 -198.286 593.604 -187.4 591.402C5.69265 552.341 196.344 513.774 390.198 481.226C594.982 446.843 797.182 419.584 1004.94 426.723C1203.9 433.56 1402.3 472.317 1512.42 493.827C1517.29 494.778 1521.99 495.695 1526.5 496.575L1630.08 517.547L1614.72 302.955L1829.33 288.782L1930.93 282.072L1913.1 32.9409L1812.49 53.4908L1805.42 54.9071C1699.84 76.0577 1503 115.493 1300.83 122.046C1197.45 125.396 1094.22 120.046 990.989 114.696C887.757 109.345 784.525 103.995 681.142 107.346C476.789 113.969 277.862 154.193 76.0265 195.005L68.8791 196.45C57.9754 198.655 47.0804 200.859 36.1932 203.061C-156.899 242.122 -347.549 280.689 -541.403 313.236C-746.187 347.619 -948.387 374.878 -1156.14 367.739C-1355.1 360.903 -1553.51 322.146 -1663.63 300.635C-1668.5 299.684 -1673.19 298.767 -1677.71 297.888Z" fill="#732900" fill-opacity="0.45" style="mix-blend-mode:hue"/>
<path fill-rule="evenodd" clip-rule="evenodd" d="M-28.6908 254.786L-74.1322 258.114V285.515H-112.831V375.291L-58.5176 395.241C-4.20405 415.191 104.423 455.091 213.05 465.066C321.677 475.042 430.304 455.091 538.932 430.154C548.807 427.887 558.682 425.578 568.557 423.27C667.309 400.187 766.061 377.105 864.813 395.241C921.985 405.741 979.157 430.057 1036.33 454.373C1087.78 476.257 1139.24 498.142 1190.69 509.954C1299.32 534.892 1407.95 514.942 1462.26 504.967L1516.58 494.992V318.005H1532.84H1578.28V258.114L1532.84 244.804C1529.74 243.922 1526.44 242.981 1522.96 241.988C1473.96 228.009 1389.02 203.774 1302.88 188.24C1210.62 171.604 1119.74 164.949 1027.48 184.913C984.015 194.318 940.859 209.63 897.719 224.935C849.285 242.12 800.873 259.296 752.075 268.096C669.381 283.007 587.792 273.861 505.327 264.616C495.788 263.547 486.238 262.476 476.673 261.441C384.413 251.459 293.53 244.804 201.27 244.804C111.546 244.804 23.1236 251.098 -24.7322 254.505C-26.0844 254.601 -27.4042 254.695 -28.6908 254.786Z" fill="#8B0606" fill-opacity="0.45"/>
<path fill-rule="evenodd" clip-rule="evenodd" d="M-75.2474 98.0211L-129.561 107.996V284.983H-145.826H-191.267V344.874L-145.826 358.184C-142.721 359.066 -139.422 360.007 -135.942 361C-86.9474 374.979 -2.00618 399.214 84.1354 414.748C176.395 431.384 267.278 438.039 359.538 418.075C403 408.67 446.157 393.358 489.296 378.053C537.731 360.868 586.143 343.692 634.94 334.892C717.635 319.981 799.223 329.127 881.689 338.372C891.227 339.441 900.778 340.512 910.343 341.547C1002.6 351.529 1093.49 358.184 1185.75 358.184C1275.47 358.184 1363.89 351.89 1411.75 348.483L1415.71 348.202L1461.15 344.874V317.473H1499.85V227.697L1445.53 207.747C1391.22 187.797 1282.59 147.896 1173.96 137.921C1065.34 127.946 956.71 147.896 848.083 172.834C838.208 175.101 828.333 177.409 818.458 179.718C719.706 202.8 620.954 225.883 522.202 207.747C465.03 197.247 407.857 172.931 350.685 148.615C299.23 126.73 247.775 104.846 196.32 93.0336C87.6933 68.0959 -20.9339 88.046 -75.2474 98.0211Z" fill="#7B0000" fill-opacity="0.74"/>
<path fill-rule="evenodd" clip-rule="evenodd" d="M-136.081 131.472L-189.172 108.422V287.113H-301.327H-354.419V494.566L-301.327 483.041C-300.109 482.785 -298.865 482.522 -297.596 482.255C-241.896 470.504 -138.043 448.594 -32.6512 454.228C21.245 457.11 74.7389 467.194 128.233 477.279C181.727 487.363 235.221 497.448 289.117 500.329C395.652 506.024 500.615 483.575 607.114 460.797L610.884 459.991C616.638 458.761 622.387 457.53 628.131 456.301C730.016 434.496 830.613 412.968 932.652 396.603C1040.44 379.315 1146.63 367.79 1254.42 385.077C1357.65 401.633 1459.4 444.614 1515.87 468.468C1518.37 469.523 1520.78 470.54 1523.1 471.516L1576.19 494.566V315.875H1688.34H1741.43V108.422L1688.34 119.947L1684.61 120.733C1628.91 132.484 1525.06 154.394 1419.67 148.76C1365.77 145.878 1312.28 135.794 1258.78 125.709C1205.29 115.625 1151.79 105.54 1097.9 102.659C991.364 96.9636 886.4 119.413 779.902 142.191L776.131 142.997C770.378 144.227 764.63 145.457 758.886 146.687C657 168.491 556.403 190.02 454.363 206.385C346.571 223.673 240.388 235.198 132.595 217.911C29.3671 201.355 -72.3856 158.374 -128.859 134.52C-131.356 133.465 -133.765 132.448 -136.081 131.472Z" fill="#732900" fill-opacity="0.45" style="mix-blend-mode:hue"/>
</svg>
